<svg  xmlns="http://www.w3.org/2000/svg" width="100" height="100"><polygon points="50,50 80,50.00000000000001 87.49999999999999,62.990381056766594 79.99999999999997,75.98076211353316 64.99999999999996,75.98076211353315" fill="#f6f1de" stroke="#3e3f5b" stroke-width="2"></polygon><polygon points="50,50 64.99999999999999,24.019237886466836 80,24.019237886466843 87.5,37.00961894323342 79.99999999999997,49.99999999999998" fill="#acd3a8" stroke="#3e3f5b" stroke-width="2"></polygon><polygon points="50,50 35.00000000000002,24.019237886466826 42.50000000000004,11.02885682970026 57.50000000000004,11.028856829700274 65.00000000000004,24.019237886466847" fill="#8ab2a6" stroke="#3e3f5b" stroke-width="2"></polygon><polygon points="50,50 20,49.999999999999986 12.499999999999993,37.00961894323341 19.99999999999997,24.019237886466822 34.99999999999997,24.019237886466836" fill="#f6f1de" stroke="#3e3f5b" stroke-width="2"></polygon><polygon points="50,50 35.00000000000001,75.98076211353316 20.000000000000007,75.98076211353316 12.5,62.99038105676657 20.00000000000003,50.000000000000014" fill="#acd3a8" stroke="#3e3f5b" stroke-width="2"></polygon><polygon points="50,50 64.99999999999997,75.98076211353317 57.49999999999995,88.97114317029974 42.49999999999995,88.97114317029973 34.99999999999999,75.98076211353312" fill="#8ab2a6" stroke="#3e3f5b" stroke-width="2"></polygon></svg>